<?xml version="1.0" standalone="no"?><svg xmlns:xlink="http://www.w3.org/1999/xlink" xmlns="http://www.w3.org/2000/svg" viewBox="0 0 1000 583.3388125452035" preserveAspectRatio="xMaxYMax slice"><g transform="scale(1.315010848839503)"><rect x="0" y="0" width="760.4571428571429" height="443.6" fill="#ffffff"/><circle cx="31.685000000000002" cy="31.685000000000002" r="6.335" fill="#3DFAFF"/><circle cx="95.05499999999999" cy="31.685000000000002" r="6.335" fill="#3DFAFF"/><circle cx="158.425" cy="31.685000000000002" r="6.335" fill="#43C59E"/><circle cx="221.79500000000002" cy="31.685000000000002" r="6.335" fill="#43C59E"/><circle cx="285.16499999999996" cy="31.685000000000002" r="6.335" fill="#43C59E"/><circle cx="348.54499999999996" cy="31.685000000000002" r="6.335" fill="#43C59E"/><circle cx="411.91499999999996" cy="31.685000000000002" r="6.335" fill="#43C59E"/><circle cx="475.28499999999997" cy="31.685000000000002" r="6.335" fill="#3DFAFF"/><circle cx="538.6550000000001" cy="31.685000000000002" r="6.335" fill="#43C59E"/><circle cx="602.0250000000001" cy="31.685000000000002" r="6.335" fill="#3DFAFF"/><circle cx="665.395" cy="31.685000000000002" r="6.335" fill="#3DFAFF"/><circle cx="728.765" cy="31.685000000000002" r="6.335" fill="#43C59E"/><circle cx="31.685000000000002" cy="95.05499999999999" r="6.335" fill="#43C59E"/><circle cx="95.055" cy="95.055" r="8.075" fill="#43C59E"/><circle cx="158.435" cy="95.05499999999999" r="9.815" fill="#43C59E"/><circle cx="221.8" cy="95.06" r="11.55" fill="#3DFAFF"/><circle cx="285.17" cy="95.06" r="13.29" fill="#3DFAFF"/><circle cx="348.53999999999996" cy="95.06" r="15.03" fill="#3DFAFF"/><circle cx="411.91999999999996" cy="95.06" r="15.03" fill="#43C59E"/><circle cx="475.28999999999996" cy="95.06" r="15.03" fill="#43C59E"/><circle cx="538.66" cy="95.06" r="13.29" fill="#3DFAFF"/><circle cx="602.03" cy="95.06" r="11.55" fill="#43C59E"/><circle cx="665.4050000000001" cy="95.05499999999999" r="9.815" fill="#43C59E"/><circle cx="728.7750000000001" cy="95.055" r="8.075" fill="#43C59E"/><circle cx="31.685000000000002" cy="158.425" r="6.335" fill="#3DFAFF"/><circle cx="95.05499999999999" cy="158.435" r="9.815" fill="#43C59E"/><circle cx="158.42999999999998" cy="158.42999999999998" r="13.29" fill="#3DFAFF"/><circle cx="221.79500000000002" cy="158.425" r="16.765" fill="#3DFAFF"/><circle cx="285.175" cy="158.435" r="20.245" fill="#3DFAFF"/><circle cx="348.53999999999996" cy="158.43" r="23.72" fill="#3DFAFF"/><circle cx="411.91999999999996" cy="158.43" r="23.72" fill="#3DFAFF"/><circle cx="475.28999999999996" cy="158.43" r="23.72" fill="#43C59E"/><circle cx="538.655" cy="158.435" r="20.245" fill="#3DFAFF"/><circle cx="602.025" cy="158.425" r="16.765" fill="#3DFAFF"/><circle cx="665.4" cy="158.42999999999998" r="13.29" fill="#43C59E"/><circle cx="728.7750000000001" cy="158.435" r="9.815" fill="#3DFAFF"/><circle cx="31.685000000000002" cy="221.79500000000002" r="6.335" fill="#3DFAFF"/><circle cx="95.055" cy="221.795" r="11.405" fill="#43C59E"/><circle cx="158.42499999999998" cy="221.795" r="16.475" fill="#3DFAFF"/><circle cx="221.79500000000002" cy="221.79500000000002" r="21.545" fill="#3DFAFF"/><circle cx="285.175" cy="221.79500000000002" r="26.615" fill="#43C59E"/><circle cx="348.545" cy="221.79500000000002" r="31.685" fill="#43C59E"/><circle cx="411.915" cy="221.79500000000002" r="31.685" fill="#43C59E"/><circle cx="475.285" cy="221.79500000000002" r="31.685" fill="#43C59E"/><circle cx="538.655" cy="221.79500000000002" r="26.615" fill="#3DFAFF"/><circle cx="602.025" cy="221.79500000000002" r="21.545" fill="#3DFAFF"/><circle cx="665.395" cy="221.795" r="16.475" fill="#43C59E"/><circle cx="728.765" cy="221.795" r="11.405" fill="#3DFAFF"/><circle cx="31.685000000000002" cy="285.16499999999996" r="6.335" fill="#3DFAFF"/><circle cx="95.055" cy="285.16499999999996" r="11.405" fill="#3DFAFF"/><circle cx="158.42499999999998" cy="285.165" r="16.475" fill="#43C59E"/><circle cx="221.79500000000002" cy="285.175" r="21.545" fill="#43C59E"/><circle cx="285.175" cy="285.175" r="26.615" fill="#43C59E"/><circle cx="348.545" cy="285.175" r="31.685" fill="#3DFAFF"/><circle cx="411.915" cy="285.175" r="31.685" fill="#3DFAFF"/><circle cx="475.285" cy="285.175" r="31.685" fill="#3DFAFF"/><circle cx="538.655" cy="285.175" r="26.615" fill="#3DFAFF"/><circle cx="602.025" cy="285.175" r="21.545" fill="#43C59E"/><circle cx="665.395" cy="285.165" r="16.475" fill="#43C59E"/><circle cx="728.765" cy="285.16499999999996" r="11.405" fill="#43C59E"/><circle cx="31.685000000000002" cy="348.54499999999996" r="6.335" fill="#43C59E"/><circle cx="95.05499999999999" cy="348.545" r="9.815" fill="#3DFAFF"/><circle cx="158.42999999999998" cy="348.54" r="13.29" fill="#43C59E"/><circle cx="221.79500000000002" cy="348.54499999999996" r="16.765" fill="#43C59E"/><circle cx="285.175" cy="348.545" r="20.245" fill="#3DFAFF"/><circle cx="348.53999999999996" cy="348.53999999999996" r="23.72" fill="#43C59E"/><circle cx="411.91999999999996" cy="348.53999999999996" r="23.72" fill="#3DFAFF"/><circle cx="475.28999999999996" cy="348.53999999999996" r="23.72" fill="#43C59E"/><circle cx="538.655" cy="348.545" r="20.245" fill="#3DFAFF"/><circle cx="602.025" cy="348.54499999999996" r="16.765" fill="#43C59E"/><circle cx="665.4" cy="348.54" r="13.29" fill="#43C59E"/><circle cx="728.7750000000001" cy="348.545" r="9.815" fill="#3DFAFF"/><circle cx="31.685000000000002" cy="411.91499999999996" r="6.335" fill="#43C59E"/><circle cx="95.055" cy="411.91499999999996" r="8.075" fill="#43C59E"/><circle cx="158.435" cy="411.915" r="9.815" fill="#3DFAFF"/><circle cx="221.8" cy="411.91" r="11.55" fill="#3DFAFF"/><circle cx="285.17" cy="411.91" r="13.29" fill="#3DFAFF"/><circle cx="348.53999999999996" cy="411.91999999999996" r="15.03" fill="#43C59E"/><circle cx="411.91999999999996" cy="411.91999999999996" r="15.03" fill="#43C59E"/><circle cx="475.28999999999996" cy="411.91999999999996" r="15.03" fill="#3DFAFF"/><circle cx="538.66" cy="411.91" r="13.29" fill="#43C59E"/><circle cx="602.03" cy="411.91" r="11.55" fill="#3DFAFF"/><circle cx="665.4050000000001" cy="411.915" r="9.815" fill="#43C59E"/><circle cx="728.7750000000001" cy="411.91499999999996" r="8.075" fill="#3DFAFF"/></g></svg>